<svg width="31" height="31" viewBox="0 0 31 31" fill="none" xmlns="http://www.w3.org/2000/svg">
<path d="M28.1818 4.22705H2.81815C1.26174 4.22705 0 5.48879 0 7.04527V23.9544C0 25.5108 1.26174 26.7725 2.81815 26.7725H28.1818C29.7382 26.7725 30.9999 25.5108 30.9999 23.9544V7.04527C31 5.48879 29.7383 4.22705 28.1818 4.22705ZM2.81815 5.63616H28.1818C28.3428 5.63719 28.5024 5.66577 28.6538 5.72068L16.4582 17.9164C15.9344 18.4436 15.0823 18.4464 14.5551 17.9226C14.553 17.9206 14.5509 17.9185 14.5489 17.9164L2.34613 5.72068C2.4975 5.66577 2.65716 5.63713 2.81815 5.63616ZM1.40911 23.9543V7.04527C1.4019 6.96322 1.4019 6.8807 1.40911 6.79866L10.1314 15.4998L1.40911 24.2009C1.4019 24.1189 1.4019 24.0364 1.40911 23.9543ZM28.1818 25.3634H2.81815C2.65716 25.3624 2.4975 25.3338 2.34613 25.2789L11.1318 16.4932L13.5484 18.9099C14.6222 19.9877 16.3664 19.991 17.4442 18.9172C17.4467 18.9148 17.4491 18.9123 17.4515 18.9099L19.8682 16.4932L28.6538 25.2789C28.5025 25.3338 28.3428 25.3625 28.1818 25.3634ZM29.5909 24.2009L20.8686 15.4998L29.5909 6.79866C29.5981 6.8807 29.5981 6.96322 29.5909 7.04527V23.9544C29.5981 24.0364 29.5981 24.1189 29.5909 24.2009Z" fill="#0067FF"/>
</svg>
